<svg xmlns="http://www.w3.org/2000/svg" viewBox="0 0 640 640" role="img" aria-labelledby="title desc">
  <title id="title">esbg logo</title>
  <desc id="desc">A hexagon logo inspired by Figure 11, with a large lower-left blob and a compact upper-right blob under equal-size binary grouping.</desc>
  <defs>
    <linearGradient id="bg" x1="120" y1="70" x2="520" y2="585" gradientUnits="userSpaceOnUse">
      <stop offset="0" stop-color="#fbefd0"/>
      <stop offset="1" stop-color="#f8e8bd"/>
    </linearGradient>
    <filter id="shadow" x="-20%" y="-20%" width="140%" height="140%">
      <feDropShadow dx="0" dy="12" stdDeviation="16" flood-color="#102433" flood-opacity="0.16"/>
    </filter>
  </defs>

  <path d="M320 42 560 180v280L320 598 80 460V180Z" fill="url(#bg)" stroke="#9b5b13" stroke-width="18" stroke-linejoin="round"/>

  <g fill="#1f77b4">
    <circle cx="170" cy="402" r="12"/>
    <circle cx="192" cy="358" r="12"/>
    <circle cx="205" cy="434" r="12"/>
    <circle cx="222" cy="326" r="12"/>
    <circle cx="228" cy="392" r="12"/>
    <circle cx="245" cy="452" r="12"/>
    <circle cx="258" cy="354" r="12"/>
    <circle cx="268" cy="420" r="12"/>
    <circle cx="286" cy="314" r="12"/>
    <circle cx="298" cy="382" r="12"/>
    <circle cx="306" cy="446" r="12"/>
    <circle cx="326" cy="340" r="12"/>
    <circle cx="332" cy="408" r="12"/>
    <circle cx="340" cy="468" r="12"/>
    <circle cx="238" cy="296" r="12"/>
    <circle cx="356" cy="376" r="12"/>
    <circle cx="258" cy="324" r="12"/>
    <circle cx="286" cy="350" r="12"/>
  </g>

  <g fill="#ff7f0e">
    <circle cx="338" cy="328" r="12"/>
    <circle cx="358" cy="358" r="12"/>
    <circle cx="374" cy="392" r="12"/>
    <circle cx="392" cy="338" r="12"/>
    <circle cx="408" cy="374" r="12"/>
    <circle cx="424" cy="412" r="12"/>
    <circle cx="440" cy="316" r="12"/>
    <circle cx="464" cy="286" r="12"/>
    <circle cx="408" cy="250" r="12"/>
    <circle cx="432" cy="220" r="12"/>
    <circle cx="440" cy="278" r="12"/>
    <circle cx="464" cy="206" r="12"/>
    <circle cx="474" cy="258" r="12"/>
    <circle cx="494" cy="228" r="12"/>
    <circle cx="500" cy="284" r="12"/>
    <circle cx="476" cy="186" r="12"/>
    <circle cx="512" cy="212" r="12"/>
    <circle cx="518" cy="256" r="12"/>
  </g>

  <g>
    <path d="M267 357 287 391h-40Z" fill="#8fc4e6"/>
    <path d="M440 265 460 299h-40Z" fill="#ffbd73"/>
  </g>

  <text x="305" y="268" text-anchor="middle" font-family="Georgia, 'Times New Roman', Times, serif" font-size="72" font-weight="700" fill="#9b5b13" letter-spacing="0">esbg</text>
</svg>
